<?xml version="1.0" standalone="no"?>
<!DOCTYPE svg PUBLIC "-//W3C//DTD SVG 20010904//EN"
 "http://www.w3.org/TR/2001/REC-SVG-20010904/DTD/svg10.dtd">
<svg version="1.0" xmlns="http://www.w3.org/2000/svg"
 width="1259.000000pt" height="1446.000000pt" viewBox="0 0 1259.000000 1446.000000"
 preserveAspectRatio="xMidYMid meet">

<g transform="translate(0.000000,1446.000000) scale(0.100000,-0.100000)"
fill="#000000" stroke="none">
<path d="M6550 13029 c-25 -11 -54 -28 -65 -38 -11 -10 -33 -21 -50 -24 -16
-3 -48 -10 -70 -16 -22 -6 -59 -11 -82 -11 -23 0 -46 -6 -50 -13 -11 -17 -86
-39 -107 -31 -10 4 -25 -1 -35 -10 -13 -12 -21 -14 -26 -7 -9 16 -25 13 -25
-4 0 -18 -1 -18 -37 -4 -40 15 -106 -7 -99 -33 4 -19 -2 -24 -87 -57 -18 -7
-29 -20 -33 -40 -4 -20 -15 -33 -33 -39 -75 -27 -128 -42 -144 -42 -10 0 -25
-13 -34 -28 -9 -16 -37 -40 -62 -53 -30 -15 -56 -40 -74 -69 -82 -131 -147
-247 -147 -261 0 -22 -37 -59 -59 -59 -10 0 -35 -7 -56 -16 -35 -14 -36 -17
-22 -31 14 -14 14 -20 2 -43 -8 -15 -21 -30 -30 -34 -11 -4 -14 -13 -10 -25 3
-10 -1 -24 -10 -31 -33 -27 -73 -99 -68 -119 3 -13 1 -21 -7 -21 -8 0 -11 -11
-8 -31 8 -49 -26 -107 -73 -128 -33 -15 -62 -18 -167 -15 -70 1 -372 5 -672 9
-575 6 -996 11 -1605 20 -203 3 -525 8 -715 10 -630 8 -1071 15 -1433 21
l-358 6 3 -376 c2 -290 6 -379 16 -385 10 -6 9 -14 -4 -41 -15 -29 -16 -52 -9
-179 5 -80 8 -186 6 -236 -1 -49 -4 -721 -6 -1492 -4 -1264 -3 -1403 11 -1403
14 0 14 -2 0 -22 -14 -20 -16 -328 -16 -3070 l0 -3048 23 -1 c12 -1 82 -1 154
1 l133 2 0 -32 c0 -17 -18 -120 -40 -228 -21 -108 -49 -251 -60 -317 -56 -317
-138 -623 -196 -737 -9 -17 -14 -60 -14 -113 l0 -85 3368 0 3369 0 6 443 c23
1544 19 2196 -18 2697 -21 284 -37 416 -71 588 -8 42 -19 100 -24 127 -5 28
-25 115 -44 195 -47 192 -70 354 -57 410 5 23 6 52 2 63 -22 58 254 417 351
458 37 15 138 -2 178 -30 24 -17 68 -30 118 -34 12 -1 22 -5 22 -9 0 -5 9 -8
19 -8 11 0 23 -4 26 -10 3 -5 13 -10 20 -10 8 0 -32 61 -88 135 -56 73 -130
171 -164 217 -166 223 -310 344 -470 394 -64 20 -264 54 -317 54 -92 0 -239
-66 -441 -199 -80 -52 -138 -104 -292 -261 -106 -107 -192 -199 -192 -205 0
-15 131 -76 143 -67 6 5 44 8 84 8 68 -1 74 -3 98 -31 29 -35 77 -135 98 -205
13 -44 13 -57 -5 -142 -31 -143 -38 -184 -54 -292 -16 -107 -40 -330 -55 -511
-16 -183 -49 -537 -55 -580 -3 -22 -12 -110 -20 -195 -8 -85 -19 -195 -24
-245 -6 -49 -15 -160 -21 -245 -6 -85 -15 -209 -20 -275 -5 -66 -14 -183 -19
-260 -6 -77 -15 -196 -21 -265 -5 -69 -15 -194 -21 -278 -7 -84 -16 -155 -21
-158 -4 -3 -5 -16 -2 -29 3 -12 1 -26 -5 -29 -6 -4 -11 -1 -11 6 0 7 -11 132
-25 278 -43 466 -63 691 -74 840 -6 80 -25 314 -41 520 -54 681 -50 621 -90
1250 -12 173 -27 405 -35 515 -19 256 -20 389 -6 443 14 51 24 48 41 -13 7
-25 16 -48 20 -50 15 -9 -2 71 -40 200 -22 72 -44 153 -49 180 -5 28 -14 233
-20 455 -6 223 -16 480 -22 571 -13 201 -6 260 55 449 58 177 84 267 92 310 4
19 13 48 21 64 9 17 12 39 8 55 -6 22 -6 56 -2 211 1 14 -2 130 -7 259 -6 173
-13 252 -26 305 -10 39 -21 94 -25 121 -3 28 -10 73 -15 100 -5 28 -16 95 -26
150 -22 133 -21 126 -33 158 -6 15 -16 27 -23 27 -33 -1 -89 -19 -104 -34 -12
-12 -25 -15 -52 -10 -37 7 -82 31 -82 43 0 3 -20 33 -45 66 -25 33 -45 69 -45
81 0 32 -22 53 -55 54 -16 1 -140 1 -275 0 -135 0 -270 4 -299 10 -93 17 -180
13 -246 -14 -33 -13 -98 -36 -145 -51 -47 -15 -126 -47 -177 -71 -51 -24 -95
-44 -99 -44 -3 0 -34 -13 -68 -29 -33 -16 -95 -44 -136 -63 -41 -19 -102 -52
-135 -74 -69 -46 -118 -70 -157 -79 -18 -3 -42 -24 -65 -54 -21 -26 -58 -63
-82 -82 -25 -19 -68 -55 -96 -81 -28 -25 -92 -74 -143 -108 -58 -38 -101 -74
-114 -96 -11 -19 -39 -44 -62 -56 -139 -70 -360 -291 -340 -341 8 -21 83 -45
191 -62 48 -7 94 -15 102 -17 7 -1 22 13 33 32 25 46 104 118 138 125 15 3 58
24 96 47 127 76 227 128 245 128 10 0 21 -5 25 -12 9 -15 8 -232 -1 -288 -4
-24 -3 -40 3 -40 12 0 16 20 38 195 16 129 20 143 48 177 17 21 41 50 52 65
21 27 26 28 102 27 84 -2 131 -21 132 -55 0 -8 6 -23 13 -34 13 -16 15 -14 25
28 7 25 12 68 12 96 0 67 14 94 63 119 23 12 69 38 102 57 40 23 70 34 90 33
26 -3 32 -9 45 -50 17 -55 35 -62 44 -18 9 48 36 53 247 46 102 -4 201 -11
220 -16 49 -14 376 -23 384 -10 10 16 35 12 35 -6 0 -11 -5 -14 -16 -10 -12 4
-15 2 -10 -9 3 -8 2 -15 -3 -15 -12 0 -51 -85 -51 -110 0 -11 -4 -28 -9 -38
-5 -9 -12 -24 -16 -32 -15 -37 -36 -63 -121 -147 -71 -70 -93 -99 -98 -127 -5
-24 -16 -42 -34 -53 -15 -10 -43 -32 -62 -50 -19 -18 -46 -33 -59 -33 -36 0
-88 -37 -122 -86 -30 -44 -69 -60 -69 -28 0 9 -3 14 -7 12 -51 -25 -64 -36
-78 -65 -9 -19 -28 -44 -41 -56 -13 -11 -24 -24 -24 -28 0 -4 25 -8 56 -8 57
0 77 -11 71 -40 -1 -8 -16 -20 -33 -27 -29 -12 -34 -11 -58 11 -15 14 -31 25
-37 25 -5 0 -8 3 -6 8 1 4 -3 8 -8 10 -10 2 -11 -1 -14 -32 -2 -22 -32 -28
-53 -9 -23 21 -34 10 -41 -42 -15 -109 -29 -156 -54 -173 -51 -35 -60 -50 -72
-118 -7 -38 -22 -96 -32 -128 -37 -111 -9 -132 127 -97 148 37 169 30 159 -52
-7 -52 -6 -56 19 -72 21 -14 26 -25 26 -61 0 -35 4 -46 23 -55 32 -18 46 -40
45 -74 -1 -17 4 -40 10 -52 18 -33 15 -71 -7 -83 -11 -5 -26 -17 -35 -25 -15
-15 -162 -105 -171 -105 -3 0 -22 -10 -43 -23 -20 -13 -143 -78 -272 -145
-217 -111 -256 -128 -505 -210 -149 -50 -335 -116 -415 -147 -181 -71 -225
-85 -273 -85 l-37 0 0 378 c1 207 1 383 1 390 -1 15 -56 8 -78 -10 -7 -5 -31
-8 -55 -6 -41 3 -43 1 -46 -26 -3 -24 -1 -28 15 -21 43 17 50 16 57 -7 14 -46
25 -377 19 -546 -7 -200 -6 -198 -104 -206 -30 -3 -68 -10 -84 -16 -17 -7 -75
-13 -130 -15 -55 -1 -112 -7 -126 -13 -65 -26 -188 -167 -204 -234 -20 -79
-41 19 -37 167 5 182 5 200 -7 245 -7 28 -11 137 -10 290 1 392 4 463 17 487
15 26 69 39 109 26 29 -10 59 -53 43 -63 -5 -3 -13 -38 -18 -78 -7 -57 -6 -72
5 -72 15 0 17 -16 3 -25 -15 -9 -12 -35 3 -35 20 0 80 -31 92 -47 15 -20 85
-29 95 -13 13 21 -38 44 -58 28 -12 -10 -16 -10 -19 0 -3 6 -12 12 -22 12 -16
0 -17 7 -10 65 5 36 12 71 16 78 4 7 8 29 9 50 3 64 4 67 24 67 11 0 20 -4 20
-10 0 -5 -6 -7 -12 -5 -9 4 -14 -7 -15 -30 -3 -33 -1 -35 28 -35 l31 0 -6 58
c-3 31 -5 58 -6 60 -1 11 -89 40 -110 36 -46 -10 -61 21 -61 123 0 97 11 139
44 165 21 16 21 17 2 37 -16 18 -18 35 -16 114 1 50 7 107 13 126 8 25 7 43
-2 70 -9 27 -9 75 -1 195 11 166 18 185 54 163 90 -55 132 -85 146 -101 7 -9
21 -16 30 -17 12 0 11 -2 -4 -9 -18 -8 -18 -9 6 -9 14 -1 34 -8 45 -16 28 -21
80 -18 130 7 24 12 44 25 44 28 0 4 32 11 71 14 39 4 68 11 63 15 -13 12 -98
33 -120 30 -47 -7 -178 16 -269 47 -54 19 -110 34 -122 34 -13 0 -23 5 -23 10
0 6 -7 10 -15 10 -19 0 -47 93 -36 123 16 46 -14 74 -64 61 -11 -2 -33 4 -50
14 l-30 19 1 344 c3 501 14 619 60 619 18 0 41 37 48 74 8 47 25 332 32 561
12 390 5 542 -36 785 -18 103 -24 264 -10 289 l12 23 321 -6 c177 -3 633 -9
1012 -12 380 -3 713 -7 740 -10 28 -2 325 -6 660 -9 336 -3 624 -8 641 -11 23
-3 35 -13 47 -39 9 -20 17 -44 17 -54 0 -10 7 -32 15 -47 17 -33 20 -74 6 -74
-16 0 19 -72 59 -123 l38 -47 16 31 c20 40 20 59 1 59 -17 0 -20 16 -5 25 6 3
10 1 10 -4 0 -6 7 -11 15 -11 17 0 20 31 4 47 -8 8 -8 17 0 32 7 12 9 21 7 21
-3 0 1 19 9 41 21 58 20 113 -1 105 -12 -5 -14 -1 -7 17 4 12 7 35 7 50 -1 18
3 26 11 23 8 -3 10 4 8 18 -5 24 21 44 32 25 4 -5 10 -7 15 -4 6 3 4 14 -3 26
-9 14 -9 22 -1 27 6 4 14 26 17 50 3 24 12 51 21 61 9 10 16 30 16 44 0 20 5
27 20 27 14 0 20 7 20 23 0 12 9 28 20 35 12 7 18 17 15 22 -9 14 17 60 34 60
10 0 12 -3 5 -8 -6 -4 -7 -17 -3 -32 4 -14 7 -18 8 -9 1 9 10 28 21 42 25 32
26 65 3 63 -24 -2 -18 41 10 71 11 13 18 26 14 29 -3 4 -2 14 3 23 5 10 11 36
13 59 3 22 12 51 21 64 9 12 16 30 16 40 0 9 5 29 12 45 6 15 10 34 9 41 -5
29 54 160 97 217 45 59 126 145 136 145 3 0 31 12 63 27 32 14 69 27 83 29 14
1 48 8 75 13 78 17 155 23 155 13 0 -6 10 -10 23 -10 12 1 60 -11 107 -26 47
-15 116 -31 153 -35 38 -5 76 -16 86 -25 9 -9 40 -20 67 -25 59 -12 135 -47
256 -118 25 -14 53 -22 85 -22 34 1 62 -7 97 -27 47 -26 49 -27 77 -10 17 10
38 15 50 11 22 -7 79 12 79 26 0 17 40 49 61 49 11 0 30 -5 41 -11 18 -10 20
-9 15 5 -5 11 -3 15 4 10 7 -4 20 4 30 17 10 13 19 19 19 14 0 -6 36 -11 92
-11 56 -1 93 -5 96 -12 4 -13 100 -5 119 10 7 6 20 5 35 -3 27 -15 114 -14
211 2 50 8 72 8 80 0 6 -6 25 -11 42 -11 20 0 41 -10 60 -28 37 -34 85 -97 85
-111 0 -6 5 -11 11 -11 6 0 9 -7 5 -15 -3 -9 0 -15 9 -15 8 0 15 -7 15 -17 0
-9 11 -31 25 -49 14 -18 25 -35 25 -39 0 -3 11 -23 25 -45 14 -22 25 -48 25
-59 0 -11 4 -22 9 -25 9 -6 11 -17 29 -123 4 -28 14 -58 21 -67 12 -14 9 -20
-10 -18 -3 1 -6 -15 -7 -34 -1 -19 -4 -39 -7 -45 -9 -14 15 -118 37 -161 13
-24 18 -47 14 -63 -4 -14 -1 -35 6 -48 7 -12 13 -24 14 -27 5 -22 18 -40 30
-40 8 0 14 -7 14 -15 0 -8 6 -15 14 -15 20 0 31 -21 16 -30 -8 -5 -9 -10 -1
-14 7 -5 5 -14 -8 -27 -18 -20 -18 -21 -1 -57 29 -59 38 -178 36 -434 -2 -131
0 -238 4 -238 3 0 14 27 24 60 10 32 24 64 32 71 8 6 14 20 14 30 0 10 5 21
10 24 16 10 12 43 -7 54 -15 8 -16 14 -5 43 7 19 17 70 22 114 35 266 39 324
44 669 2 121 7 258 10 305 4 47 8 103 9 125 1 22 6 46 11 53 5 8 4 18 -3 25
-6 6 -11 26 -11 43 0 18 -5 36 -10 39 -7 4 -7 12 0 25 5 10 10 37 10 59 0 31
-5 43 -27 59 -24 18 -25 22 -11 27 12 5 15 15 11 39 -3 23 0 38 12 49 23 23
13 34 -42 42 -42 6 -46 9 -29 19 28 16 56 44 56 56 0 6 -23 10 -51 10 -50 0
-51 1 -45 25 9 34 -4 31 -50 -10 -40 -37 -70 -42 -68 -12 1 9 -2 17 -6 17 -18
0 -20 41 -4 72 35 67 35 68 19 68 -13 0 -14 7 -8 38 13 66 6 164 -16 212 -11
25 -21 59 -21 77 0 35 -14 51 -26 31 -6 -9 -11 -3 -15 17 -16 66 -53 152 -79
180 -48 53 -74 97 -97 167 -39 117 -89 178 -143 178 -23 -1 -21 -3 16 -25 41
-25 88 -93 82 -120 -4 -21 -91 60 -115 108 -21 42 -122 124 -163 133 -14 3
-37 12 -52 20 -17 9 -29 11 -33 4 -3 -5 -29 -10 -57 -10 -52 0 -91 17 -153 68
-59 48 -154 83 -290 104 -159 25 -340 34 -349 19 -10 -16 -62 -13 -99 5 -17
10 -45 17 -60 16 -36 -1 -77 14 -77 28 0 5 9 10 21 10 12 0 19 5 17 13 -7 19
-30 18 -78 -4z m-670 -260 c12 -8 12 -12 2 -16 -7 -3 -26 -16 -42 -30 -26 -21
-31 -22 -36 -9 -8 21 22 66 44 66 9 0 24 -5 32 -11z m220 -852 c0 -18 -2 -19
-10 -7 -13 20 -13 43 0 35 6 -3 10 -16 10 -28z m169 -150 c1 -5 -3 -5 -9 -2
-5 3 -10 16 -9 28 0 21 1 21 9 2 5 -11 9 -24 9 -28z m-959 -757 c0 -5 -5 -10
-11 -10 -5 0 -7 5 -4 10 3 6 8 10 11 10 2 0 4 -4 4 -10z m-5110 -181 c7 -12 8
-25 2 -32 -4 -7 -7 -25 -6 -42 2 -16 6 -61 10 -100 3 -38 13 -85 21 -104 9
-20 17 -69 18 -119 2 -66 6 -87 19 -94 18 -10 22 -38 5 -38 -6 0 -9 -8 -6 -19
2 -10 1 -25 -4 -33 -4 -8 -4 -31 1 -52 12 -55 -12 -96 -57 -96 -16 0 -25 8
-29 25 -3 14 -10 25 -14 25 -10 0 -27 70 -22 93 2 9 7 17 11 17 5 0 7 17 5 37
-1 21 2 43 8 50 7 9 8 36 4 76 -4 34 -9 99 -10 144 -2 46 -9 89 -16 97 -6 8
-9 19 -6 24 2 4 7 27 10 51 7 55 25 111 36 111 5 0 14 -9 20 -21z m4846 -186
c-10 -10 -19 5 -10 18 6 11 8 11 12 0 2 -7 1 -15 -2 -18z m91 -15 c-3 -7 -5
-2 -5 12 0 14 2 19 5 13 2 -7 2 -19 0 -25z m-4579 -137 c60 -33 146 -141 123
-156 -5 -3 -7 -32 -4 -66 5 -51 3 -65 -16 -89 -11 -16 -21 -36 -21 -45 0 -31
-16 -12 -52 63 -27 55 -39 95 -43 142 -3 36 -8 86 -11 113 -6 49 -4 53 24 38z
m4512 -19 c0 -5 -7 -17 -15 -28 -14 -18 -14 -18 -15 9 0 17 5 27 15 27 8 0 15
-4 15 -8z m-4413 -409 c11 -57 8 -242 -5 -255 -8 -8 -9 -15 -1 -25 7 -8 11
-47 9 -95 -1 -46 -1 -87 -1 -93 2 -8 11 -373 15 -530 0 -27 -1 -99 -3 -160 -2
-60 -1 -150 2 -200 16 -263 18 -352 10 -373 -5 -12 -6 -51 -2 -85 3 -34 2
-127 -3 -207 -5 -80 -11 -184 -12 -232 -2 -50 -8 -94 -15 -102 -19 -23 -53 -5
-57 30 -2 16 -7 38 -13 49 -21 46 -43 138 -39 166 3 17 -1 34 -9 40 -15 13
-18 85 -3 94 5 3 10 22 10 41 0 23 -4 33 -11 28 -8 -4 -9 1 -3 17 5 13 8 44 8
69 -1 25 3 87 8 137 5 51 6 98 2 105 -20 32 10 99 36 83 6 -4 10 8 10 28 0 30
-3 34 -20 30 -16 -4 -19 -2 -14 11 4 10 1 16 -7 16 -10 0 -10 3 -1 12 8 8 8
17 1 31 -8 15 -7 29 7 58 15 34 15 44 4 78 -7 21 -10 44 -6 50 4 6 1 23 -7 38
-16 31 -13 48 13 78 18 21 18 49 6 264 -3 59 0 81 15 111 16 30 18 42 9 66
-14 35 -3 148 18 188 12 25 12 36 3 63 -7 19 -11 51 -10 73 4 45 -15 75 -31
50 -14 -22 -12 -40 5 -40 8 0 15 -7 15 -15 0 -8 -6 -15 -14 -15 -34 0 -45 48
-28 125 7 35 9 37 16 18 9 -28 26 -30 26 -3 0 11 5 20 10 20 6 0 10 17 10 38
0 26 -6 41 -20 50 -32 20 -26 63 13 89 43 29 45 29 54 -14z m-366 -286 c-6 -6
-11 -19 -11 -30 0 -11 -5 -17 -12 -14 -18 6 -11 69 7 80 8 4 16 16 17 25 0 9
3 2 5 -17 3 -18 0 -38 -6 -44z m-13 -280 c4 -29 -12 -37 -22 -11 -10 26 -7 46
7 42 6 -3 13 -17 15 -31z m-73 -7 c3 -5 -1 -10 -10 -10 -9 0 -13 5 -10 10 3 6
8 10 10 10 2 0 7 -4 10 -10z m92 -42 c-2 -13 -4 -5 -4 17 -1 22 1 32 4 23 2
-10 2 -28 0 -40z m-4 -67 c-2 -10 0 -34 5 -52 13 -47 -9 -285 -26 -281 -7 1
-12 -3 -12 -9 0 -6 -10 -9 -22 -7 -18 2 -24 11 -26 36 -2 17 1 32 6 32 5 0 13
20 17 45 3 25 10 43 16 40 5 -4 9 -5 9 -2 0 10 -41 87 -50 92 -18 11 -11 45
15 67 13 11 22 25 19 29 -5 9 36 40 47 34 4 -3 5 -13 2 -24z m-11 -532 c-8
-30 -11 -31 -18 -15 -5 13 -3 21 4 24 7 2 12 11 12 20 0 8 3 13 6 10 3 -3 1
-21 -4 -39z m18 -97 c0 -34 -16 -52 -46 -52 -12 0 -32 -11 -45 -25 -30 -31
-41 -31 -56 0 -6 14 -7 25 -2 25 5 0 9 11 9 25 0 32 32 34 52 4 14 -21 14 -21
41 15 34 43 47 46 47 8z m-23 -184 c-3 -8 -6 -5 -6 6 -1 11 2 17 5 13 3 -3 4
-12 1 -19z m3373 9 c0 -16 -20 -37 -36 -37 -13 0 -13 17 -1 38 11 16 37 16 37
-1z m24 -72 c16 -24 14 -45 -4 -45 -6 0 -30 52 -30 66 0 13 20 0 34 -21z m976
-265 c10 -6 30 -11 44 -12 15 -1 26 -6 26 -11 0 -5 9 -7 20 -4 23 6 26 -2 35
-91 8 -69 -4 -97 -36 -87 -13 4 -19 1 -19 -8 0 -9 -6 -17 -12 -20 -9 -3 -6
-13 10 -36 24 -33 26 -31 -26 -35 -7 -1 -16 -6 -20 -11 -8 -12 -42 -13 -59 -2
-6 4 -18 4 -26 1 -36 -13 -24 50 20 106 6 8 14 31 18 50 5 32 3 37 -31 58 -32
21 -35 27 -30 54 11 55 41 72 86 48z m340 -115 c0 -8 -9 -13 -20 -12 -11 1
-20 6 -20 12 0 6 9 11 20 12 11 1 20 -4 20 -12z m-265 -375 c-10 -11 -24 -20
-32 -20 -11 0 -11 4 -3 20 6 11 20 20 32 20 20 0 21 -1 3 -20z m5 -135 c7 -8
20 -15 29 -15 14 0 14 -2 1 -11 -12 -8 -10 -9 10 -7 26 2 70 -17 82 -36 4 -6
8 -25 8 -43 0 -25 -7 -36 -36 -53 -34 -22 -36 -22 -49 -4 -8 11 -12 30 -10 43
5 28 -23 74 -41 67 -15 -6 -38 19 -30 33 4 5 2 12 -4 16 -16 10 -11 25 9 25
10 0 24 -7 31 -15z m-540 -185 c-11 -11 -25 -20 -30 -20 -7 0 -7 6 0 20 6 11
20 20 30 20 20 0 20 0 0 -20z m800 -179 c0 -6 -4 -13 -10 -16 -5 -3 -10 1 -10
9 0 9 5 16 10 16 6 0 10 -4 10 -9z m80 -55 c0 -3 -4 -8 -10 -11 -5 -3 -10 -1
-10 4 0 6 5 11 10 11 6 0 10 -2 10 -4z m-4830 -25 c0 -5 3 -18 6 -28 5 -15 4
-15 -5 -3 -6 8 -11 10 -11 4 0 -16 -42 -26 -55 -13 -7 7 -2 16 15 29 27 21 50
26 50 11z m-56 -67 c9 -22 -3 -32 -14 -14 -12 19 -12 30 -1 30 5 0 12 -7 15
-16z m3706 -4 c0 -5 -6 -10 -14 -10 -8 0 -18 5 -21 10 -3 6 3 10 14 10 12 0
21 -4 21 -10z m988 -282 c-7 -19 -38 -22 -38 -4 0 10 9 16 21 16 12 0 19 -5
17 -12z m-4252 -413 c0 -14 -3 -25 -6 -25 -9 0 -29 38 -23 44 15 14 31 4 29
-19z m493 -195 c12 -57 13 -126 3 -153 -6 -13 -11 -6 -22 30 -12 44 -15 74
-11 146 2 44 18 31 30 -23z m-459 -363 c0 -60 -8 -68 -49 -51 -33 14 -33 15
-29 63 3 27 11 55 19 64 23 24 59 -22 59 -76z m512 -272 c-6 -34 -12 -32 -12
6 0 16 4 28 9 25 4 -3 6 -17 3 -31z m1503 -4147 c20 -21 20 -21 0 -13 -11 4
-35 13 -52 19 -18 6 -33 15 -33 20 0 15 64 -4 85 -26z m-25 -313 c0 -13 -4
-14 -20 -5 -11 6 -20 13 -20 15 0 3 9 5 20 5 11 0 20 -7 20 -15z m-72 -85 c22
-11 49 -20 59 -20 12 0 14 -3 6 -11 -16 -16 -67 -2 -93 27 -28 29 -25 30 28 4z"/>
<path d="M8282 12170 c0 -19 2 -27 5 -17 2 9 2 25 0 35 -3 9 -5 1 -5 -18z"/>
<path d="M9137 11839 c-8 -13 -18 -49 -21 -79 -7 -69 -16 -493 -31 -1435 -13
-842 -15 -1007 -20 -1295 -3 -168 -7 -480 -10 -695 -3 -214 -8 -502 -10 -640
-2 -137 -7 -425 -10 -640 -14 -981 -15 -1035 -36 -1035 -10 0 -66 13 -123 29
-88 25 -115 38 -168 80 -35 27 -86 78 -114 113 -27 34 -77 94 -112 133 -92
101 -171 208 -186 253 -29 82 -111 221 -123 208 -2 -2 3 -28 12 -58 9 -29 22
-98 30 -153 32 -219 19 -317 -120 -885 -20 -80 -38 -154 -40 -164 -2 -10 -9
-33 -14 -50 -5 -17 -14 -58 -21 -91 -19 -94 -30 -125 -72 -209 -21 -43 -37
-80 -35 -83 3 -2 21 19 42 47 20 27 39 50 42 50 16 0 -56 -431 -152 -913 -40
-205 -92 -475 -115 -602 -93 -518 -151 -811 -227 -1135 -25 -107 -60 -260 -78
-340 -18 -80 -56 -235 -84 -345 -48 -194 -143 -591 -201 -845 -16 -69 -65
-296 -110 -505 -45 -209 -90 -414 -101 -457 -10 -42 -19 -81 -19 -87 0 -8 808
-11 2840 -11 l2841 0 -1 118 c-4 277 -102 799 -215 1134 l-32 96 18 43 c34 74
52 150 40 162 -18 18 -13 62 10 88 31 35 19 102 -27 149 -41 43 -41 49 -9 84
17 18 34 26 58 26 30 0 67 24 67 43 0 16 65 107 76 107 11 0 14 40 14 210 l0
210 -39 0 c-26 0 -41 5 -45 15 -5 14 -9 14 -28 2 -16 -10 -54 -15 -121 -15
-85 0 -98 2 -107 18 -20 38 -13 52 28 50 20 -1 81 -2 134 -1 l98 1 6 40 c4 22
11 43 15 46 5 3 9 20 9 38 0 39 20 86 38 86 18 0 15 27 -6 48 -15 15 -41 17
-191 19 -95 1 -175 4 -178 6 -2 2 -4 28 -6 58 l-2 54 198 -2 197 -2 0 34 c0
24 -5 35 -15 35 -19 0 -19 17 0 54 8 15 15 48 15 72 0 45 -14 59 -25 25 -3
-10 -15 -27 -26 -37 -20 -18 -20 -18 -9 10 18 48 6 51 -172 50 -95 -1 -168 3
-175 9 -7 5 -13 29 -13 53 l0 43 70 -2 c42 -1 74 -7 78 -14 10 -16 88 -41 135
-45 21 -1 40 -5 43 -9 2 -4 13 -5 23 -2 10 3 22 0 25 -6 5 -8 13 -8 27 -1 18
10 19 28 19 645 0 501 -3 635 -12 635 -17 1 -85 57 -77 64 3 3 21 -5 39 -19
19 -14 38 -25 42 -25 4 0 8 245 8 545 l0 545 -79 0 c-44 0 -97 7 -121 15 -23
8 -54 15 -69 15 -24 0 -26 -4 -27 -37 0 -74 -24 -121 -37 -74 -4 18 -11 19
-63 14 -33 -3 -83 -16 -113 -29 -40 -18 -65 -23 -101 -19 -65 6 -76 12 -99 51
-23 38 -36 41 -70 18 -24 -17 -136 -26 -181 -14 -24 6 -25 10 -28 101 -4 107
-3 144 3 249 2 41 4 89 5 107 0 36 33 64 53 44 7 -7 21 -5 46 5 20 8 45 13 57
10 15 -4 24 0 28 11 8 21 -3 28 -81 47 -57 15 -69 15 -116 1 -60 -17 -93 -11
-162 30 -34 20 -57 25 -108 25 -66 0 -121 19 -131 45 -6 18 -52 20 -62 4 -7
-11 -30 -11 -254 6 -141 10 -194 34 -185 84 2 14 15 34 27 45 20 16 33 17 103
11 92 -8 301 -41 315 -50 6 -3 10 -22 10 -41 0 -19 5 -34 10 -34 6 0 10 5 10
11 0 16 48 59 65 59 40 0 23 43 -22 55 -15 3 -37 14 -50 24 -12 10 -42 22 -65
25 -47 7 -118 44 -230 120 -93 63 -128 95 -121 112 3 8 -1 14 -11 14 -9 0 -16
4 -16 8 0 5 -13 7 -30 4 -46 -7 -125 17 -169 51 -41 31 -50 57 -32 86 23 36
191 -26 209 -78 19 -50 35 -61 92 -66 71 -5 121 -23 205 -74 37 -23 69 -41 71
-41 3 0 14 -9 26 -20 12 -11 44 -27 72 -36 27 -9 71 -29 97 -44 25 -15 61 -31
79 -35 l33 -7 -21 29 c-11 16 -49 44 -84 62 -35 19 -72 39 -82 47 -18 12 -18
14 -2 20 9 4 20 3 23 0 4 -4 15 12 24 36 11 28 24 44 38 48 30 7 32 23 4 25
-28 2 -41 14 -27 23 7 5 8 18 2 40 -7 27 -13 32 -38 32 -19 0 -33 7 -40 20 -6
11 -20 20 -30 20 -11 0 -20 5 -20 10 0 6 12 10 27 10 21 0 24 3 15 12 -20 20
-14 27 13 15 14 -7 27 -24 31 -39 3 -16 12 -28 20 -28 17 0 18 12 3 27 -8 8
-5 15 10 25 16 12 19 22 15 58 -3 24 -10 52 -15 62 -22 41 22 52 53 13 11 -14
26 -25 33 -25 7 0 15 -10 17 -22 3 -26 38 -38 38 -14 0 9 -6 16 -14 16 -8 0
-16 7 -20 15 -3 8 -1 15 4 15 13 0 1 59 -18 87 -15 24 -10 73 8 73 14 0 12 28
-2 32 -6 2 -10 17 -9 34 9 95 6 119 -12 118 -10 -1 -25 9 -34 22 -8 13 -19 22
-23 19 -13 -8 -29 54 -31 120 -1 33 0 62 1 65 8 22 4 61 -11 95 -12 28 -15 50
-10 75 10 50 -7 128 -30 135 -15 5 -19 16 -19 47 0 22 -5 58 -12 80 -10 35 -9
41 10 61 16 16 22 18 22 7 0 -8 9 -26 19 -39 l19 -24 16 31 c31 60 13 175 -21
141 -6 -6 -9 -17 -7 -23 6 -17 -34 -56 -51 -50 -11 4 -12 12 -4 32 6 15 7 52
4 85 -8 66 6 91 56 102 29 7 29 7 29 78 0 65 -2 73 -22 82 -20 9 -23 18 -24
73 0 84 -17 100 -43 41 -12 -24 -21 -60 -21 -79 0 -20 -5 -41 -11 -47 -12 -12
-45 -134 -54 -206 -4 -29 -11 -57 -16 -63 -6 -7 -4 -42 3 -87 13 -83 2 -163
-28 -206 -14 -20 -23 -22 -78 -19 l-61 3 0 -138 c0 -75 -3 -137 -7 -137 -3 0
-7 -82 -7 -181 0 -100 -3 -228 -7 -285 -5 -93 -4 -109 18 -164 24 -62 36 -69
53 -32 5 12 13 22 18 22 4 0 5 5 2 10 -3 6 -2 10 4 10 6 0 8 7 5 15 -4 11 0
15 16 15 16 0 20 4 16 15 -3 8 -1 15 4 15 6 0 10 -4 10 -9 0 -5 9 -11 20 -14
13 -3 21 1 25 14 4 10 13 19 22 19 8 0 13 -5 11 -11 -2 -6 -7 -10 -11 -10 -19
2 -42 -37 -42 -72 0 -38 16 -60 62 -86 8 -4 11 -14 7 -24 -5 -13 -10 -15 -19
-7 -7 6 -53 13 -102 16 -101 6 -96 6 -145 -2 -68 -11 -86 0 -105 64 -9 31 -16
65 -14 75 1 9 -4 17 -13 17 -12 0 -14 11 -9 63 3 34 6 81 7 104 1 22 4 39 9
36 4 -2 7 2 7 11 0 8 -6 16 -12 19 -10 3 -10 9 0 26 10 17 10 21 -2 21 -8 0
-16 -8 -18 -17 -3 -16 -6 -15 -16 5 -12 20 -11 22 10 22 22 1 22 1 4 15 -20
15 -20 15 0 15 15 0 16 2 5 9 -8 5 -15 30 -17 57 -2 27 -6 67 -9 89 -3 22 -8
103 -11 180 -4 77 -11 145 -16 152 -5 7 -9 22 -8 35 6 67 6 67 -74 66 -55 0
-83 5 -107 19 l-31 18 6 275 c20 933 20 1198 -4 1160 -5 -8 -7 -17 -4 -21 10
-17 -16 -17 -37 0 -26 21 -54 12 -87 -30 l-20 -24 -7 68 c-5 44 -4 72 4 80 8
10 7 17 -2 26 -9 10 -8 15 8 27 19 14 20 13 30 -33 7 -27 14 -43 18 -36 4 7 5
22 2 35 -4 16 1 31 16 47 18 19 20 27 11 41 -11 18 -7 30 10 30 5 0 8 -6 6
-12 -1 -7 12 -29 30 -48 18 -19 32 -41 32 -49 0 -8 2 -12 5 -10 9 10 15 123
20 419 7 428 13 525 35 545 18 16 179 19 665 10 596 -10 910 -16 1045 -21 85
-3 208 -2 273 2 l117 7 0 697 0 698 -32 5 c-18 4 -154 7 -303 7 -148 1 -387 3
-530 5 -143 2 -494 6 -780 9 -286 4 -632 9 -770 11 -137 2 -424 7 -636 11
l-387 7 -15 -24z m698 -414 c66 -2 121 -4 123 -5 3 -4 20 -7 37 -9 8 0 15 -5
15 -10 0 -11 -31 -16 -220 -32 -74 -7 -139 -16 -145 -21 -9 -8 -17 -334 -19
-718 -1 -100 15 -170 36 -170 14 0 8 -61 -7 -76 -8 -9 -15 -30 -15 -48 0 -19
-7 -49 -15 -69 -8 -19 -14 -52 -15 -73 0 -48 17 -305 21 -319 2 -5 0 -30 -4
-55 -6 -39 -3 -75 17 -190 3 -14 14 -50 25 -80 30 -82 27 -140 -9 -140 -11 0
-23 -15 -34 -44 -15 -40 -15 -48 -2 -80 11 -26 11 -36 3 -40 -8 -3 -3 -12 12
-26 18 -15 25 -33 28 -71 4 -49 3 -49 -21 -43 -22 5 -27 2 -36 -22 -12 -31 2
-80 19 -69 5 3 13 1 16 -5 5 -8 11 -8 20 0 10 8 14 3 19 -23 7 -36 0 -67 -15
-67 -5 0 -9 -5 -9 -11 0 -5 5 -7 10 -4 16 10 12 -21 -5 -35 -10 -9 -15 -9 -15
-1 0 6 -4 11 -9 11 -5 0 -8 -12 -8 -26 0 -15 3 -21 7 -14 11 18 40 -16 41 -48
0 -15 2 -37 3 -49 2 -15 -3 -23 -12 -23 -10 0 -12 -7 -8 -25 4 -16 2 -25 -5
-25 -6 0 -9 -7 -6 -15 4 -8 2 -17 -3 -20 -5 -3 -15 -25 -21 -48 -14 -54 -15
-55 -44 -206 -6 -33 -22 -48 -35 -35 -17 17 -40 173 -35 238 2 34 7 95 10 136
3 41 2 100 -3 130 -5 35 -3 84 5 135 7 44 13 103 13 130 0 203 -2 254 -9 285
-6 30 -11 35 -34 35 -15 -1 -27 3 -27 7 0 4 7 8 16 8 10 0 14 6 11 14 -5 14
15 41 24 32 2 -2 4 21 4 52 0 31 8 93 18 138 17 74 17 88 3 172 -14 86 -13 94
5 143 14 35 18 62 13 86 -5 29 -3 39 11 50 11 7 13 13 7 13 -7 0 -12 10 -12
23 0 12 -8 36 -17 52 -14 24 -17 54 -16 157 1 75 6 136 13 149 18 33 29 674
15 826 -4 34 -3 67 0 73 5 8 31 9 79 5 39 -4 125 -8 191 -10z m361 -4 c-6 -10
26 -21 63 -21 19 0 21 -3 12 -14 -12 -14 -25 -14 -154 -7 -15 1 -16 4 -6 22 7
14 17 19 30 16 10 -3 22 -1 25 4 3 5 12 9 20 9 8 0 13 -4 10 -9z m239 -21 c14
-16 15 -20 4 -24 -8 -2 -22 -7 -31 -10 -10 -3 -20 -1 -24 5 -3 5 -14 7 -24 4
-11 -3 -32 1 -47 9 l-28 15 30 1 c17 1 39 5 50 10 32 14 51 11 70 -10z m1348
4 c11 3 35 -1 53 -9 21 -9 34 -10 36 -3 2 6 8 5 15 -4 8 -9 9 -19 3 -28 -8
-12 -41 -15 -180 -16 -94 0 -173 2 -175 6 -4 6 -76 10 -281 14 -62 1 -69 3
-53 14 11 7 28 11 38 7 11 -3 22 -1 25 4 4 6 13 8 21 4 8 -3 15 -1 15 4 0 12
128 14 135 2 8 -12 75 -12 75 0 0 5 32 9 72 10 39 1 73 3 75 5 2 2 27 -1 55
-6 28 -5 60 -7 71 -4z m-618 -4 c22 -4 33 -8 24 -9 -9 0 -19 -10 -22 -22 -3
-12 -10 -18 -15 -15 -5 3 -35 1 -66 -5 -46 -10 -59 -9 -78 3 -14 9 -42 14 -68
13 -25 -2 -67 -4 -95 -5 -27 -1 -63 3 -78 9 -16 6 -46 11 -67 11 -21 0 -41 4
-44 8 -3 5 23 7 57 5 34 -1 85 1 112 6 63 11 287 12 340 1z m-610 -10 c3 -5
-3 -10 -14 -10 -12 0 -21 5 -21 10 0 6 6 10 14 10 8 0 18 -4 21 -10z m1535
-14 c22 -1 46 -8 53 -15 10 -11 6 -13 -20 -8 -18 4 -33 3 -33 -2 0 -4 -13 -8
-30 -7 -16 1 -30 4 -30 7 0 13 -39 17 -50 5 -10 -8 -11 -7 -8 4 3 8 17 16 31
18 18 2 25 7 20 15 -4 7 0 6 10 -2 9 -7 35 -14 57 -15z m430 -1 c10 -13 8 -21
-3 -12 -2 1 -10 -3 -18 -9 -8 -7 -29 -9 -47 -7 l-32 5 32 19 c41 22 52 23 68
4z m-255 -5 c3 -5 0 -10 -9 -10 -8 0 -16 -5 -18 -12 -4 -12 -28 -3 -28 12 0 7
16 14 42 19 4 0 10 -3 13 -9z m-2452 -298 c-6 -4 -13 -21 -16 -37 -4 -28 -4
-27 -6 7 0 21 4 38 12 41 16 6 24 -2 10 -11z m211 -284 c-6 -64 -11 -81 -23
-73 -5 3 -9 30 -9 60 1 30 5 52 10 49 4 -3 8 0 8 5 0 6 4 11 9 11 5 0 7 -24 5
-52z m-211 -51 c9 -14 17 -61 21 -125 l7 -102 -25 0 c-41 0 -59 39 -60 128 -1
73 13 122 33 122 5 0 15 -10 24 -23z m214 -280 c2 -72 8 -160 13 -193 17 -105
-11 -366 -40 -372 -12 -2 -16 13 -18 70 -3 72 -17 128 -32 128 -5 0 -9 37 -9
83 -1 45 -3 114 -3 152 -2 71 35 225 53 225 5 0 9 8 9 18 0 20 10 35 18 27 3
-3 7 -65 9 -138z m278 -178 c4 -12 8 -45 10 -73 2 -47 9 -96 21 -153 2 -14 12
-23 22 -23 10 0 27 -6 37 -14 19 -13 18 -15 -14 -45 -18 -17 -41 -31 -51 -31
-10 0 -25 -7 -33 -14 -13 -13 -15 -1 -20 92 -6 135 -4 238 5 247 4 4 4 13 1
21 -3 8 0 14 5 14 6 0 14 -10 17 -21z m-491 -56 c3 -10 11 -25 17 -34 7 -10 9
-30 5 -52 -5 -28 -13 -38 -32 -43 -14 -4 -27 -4 -29 -2 -10 9 -17 97 -11 122
7 30 40 36 50 9z m504 -467 c2 -10 -1 -28 -6 -40 -6 -11 -13 -33 -16 -48 -4
-17 -13 -28 -23 -28 -13 0 -15 8 -9 54 3 30 9 62 12 71 8 21 38 15 42 -9z
m-304 -13 c2 -10 4 -44 4 -75 -1 -43 -6 -62 -19 -74 -11 -10 -22 -14 -27 -10
-11 12 -7 129 7 154 14 26 28 28 35 5z m-20 -271 c2 -4 8 -35 11 -67 4 -33 9
-63 11 -66 2 -4 -3 -12 -12 -20 -12 -10 -18 -9 -32 5 -15 15 -15 18 -2 26 12
8 12 12 2 18 -16 11 -26 82 -11 82 6 0 9 7 5 15 -6 15 19 22 28 7z m-199 -102
c7 -40 0 -80 -14 -80 -25 0 -39 55 -26 98 11 35 33 26 40 -18z m475 -541 c-6
-20 -6 -39 1 -51 11 -21 7 -34 -8 -25 -14 9 -15 77 -2 93 17 21 19 17 9 -17z
m-283 9 c11 -18 14 -140 7 -285 -5 -97 -9 -123 -20 -123 -29 0 -36 51 -30 228
3 95 8 178 11 183 8 13 22 11 32 -3z m295 -136 c-6 -2 -9 -9 -6 -17 6 -16 -12
-30 -21 -15 -3 5 2 21 12 36 11 18 19 22 22 13 2 -7 -1 -15 -7 -17z m-702
-436 c0 -7 -9 -23 -20 -36 -23 -26 -27 -10 -10 35 10 26 30 26 30 1z m-8 -179
c-3 -21 -11 -41 -18 -44 -8 -3 -14 -16 -14 -30 0 -13 4 -21 10 -18 6 3 10 1
10 -5 0 -7 -6 -10 -12 -7 -17 5 -13 149 5 189 l12 29 6 -38 c4 -20 4 -55 1
-76z m416 -26 c10 -6 10 -10 -3 -21 -8 -7 -15 -22 -15 -33 0 -13 -4 -17 -9
-11 -10 10 -3 74 8 74 3 0 12 -4 19 -9z m-423 -208 c10 -60 7 -163 -4 -177 -5
-6 -5 -20 -1 -31 8 -22 3 -45 -10 -45 -16 0 -28 164 -17 230 2 14 5 35 5 48 3
39 19 24 27 -25z m420 -92 c3 -17 1 -39 -5 -51 -12 -22 -12 -22 -26 -2 -16 24
-8 82 11 82 8 0 16 -13 20 -29z m2 -195 c-7 -15 -11 -16 -17 -5 -5 7 -6 17 -3
23 4 5 -1 7 -10 3 -12 -5 -17 -1 -17 13 0 11 4 20 9 20 5 0 13 15 17 33 l8 32
11 -50 c8 -33 9 -57 2 -69z m975 16 c-6 -2 -12 -10 -12 -18 0 -17 -17 -19 -23
-1 -7 22 4 35 26 29 12 -3 16 -7 9 -10z m-1406 -29 c-10 -10 -19 5 -10 18 6
11 8 11 12 0 2 -7 1 -15 -2 -18z m-16 -23 c0 -5 -2 -10 -4 -10 -3 0 -8 5 -11
10 -3 6 -1 10 4 10 6 0 11 -4 11 -10z m10 -81 c0 -42 -3 -50 -17 -47 -20 4
-27 46 -13 82 15 40 30 22 30 -35z m821 14 c8 -48 10 -67 11 -125 1 -77 -14
-108 -39 -83 -24 24 -32 17 -27 -22 3 -25 16 -48 39 -72 24 -23 35 -44 36 -65
1 -29 2 -28 10 9 4 22 8 66 8 97 1 50 4 60 26 74 30 20 49 14 104 -34 33 -29
46 -51 56 -88 11 -42 11 -51 -3 -66 -8 -10 -21 -18 -29 -18 -7 0 -13 -8 -14
-17 -3 -105 -21 -143 -48 -99 l-14 23 -30 -28 c-16 -16 -33 -29 -37 -29 -9 0
-21 52 -22 93 -1 46 -14 30 -16 -20 -5 -112 -25 -173 -58 -173 -12 0 -15 -7
-12 -25 3 -14 2 -25 -3 -25 -4 0 -14 -2 -22 -6 -15 -5 -43 48 -33 64 3 5 -4
26 -14 48 -24 45 -25 64 -7 89 12 15 12 23 -1 47 -12 25 -12 35 -2 56 16 34
23 89 12 96 -10 6 -2 86 9 86 5 0 9 13 9 28 0 15 4 32 9 38 6 5 5 25 -2 51 -6
23 -7 46 -3 50 5 4 11 2 13 -4 4 -10 9 -10 26 -1 12 7 25 11 30 10 4 -1 7 6 7
16 0 10 3 22 7 25 9 9 23 9 24 0z m106 -53 c1 -11 -4 -20 -13 -20 -14 0 -19
21 -7 33 11 12 19 7 20 -13z m673 -40 c0 -5 -7 -7 -15 -4 -8 4 -15 8 -15 10 0
2 7 4 15 4 8 0 15 -4 15 -10z m144 -210 c-10 -70 -15 -80 -42 -94 -23 -12 -32
-12 -60 -1 -17 8 -32 18 -32 24 0 5 -10 13 -22 17 -20 6 -20 8 -5 19 21 15 22
29 3 22 -9 -4 -17 2 -21 14 -4 10 -11 19 -16 19 -5 0 -9 13 -9 30 0 22 4 28
15 24 8 -4 15 -12 15 -19 0 -16 34 -55 48 -55 6 0 22 14 34 31 13 17 34 37 48
44 23 13 26 12 37 -13 7 -15 10 -43 7 -62z m-1744 21 c0 -11 4 -22 9 -26 5 -3
10 -30 10 -61 0 -30 2 -68 6 -83 3 -16 2 -32 -3 -35 -5 -3 -7 -25 -5 -49 3
-24 -3 -100 -12 -170 -10 -77 -15 -155 -11 -199 6 -83 0 -122 -20 -114 -7 3
-15 0 -17 -7 -2 -7 -5 53 -7 133 -1 80 -2 156 -3 170 0 14 0 77 1 140 1 63 1
135 0 160 -1 41 8 117 18 148 6 20 34 14 34 -7z m1515 -71 c-3 -5 -10 -10 -16
-10 -5 0 -9 5 -9 10 0 6 7 10 16 10 8 0 12 -4 9 -10z m-1115 -90 c0 -5 -10
-10 -22 -10 -19 0 -20 2 -8 10 19 13 30 13 30 0z m20 -136 c0 -8 -5 -12 -10
-9 -6 4 -8 11 -5 16 9 14 15 11 15 -7z m380 -254 c0 -5 -4 -10 -10 -10 -5 0
-10 5 -10 10 0 6 5 10 10 10 6 0 10 -4 10 -10z m157 -82 c-3 -8 -6 -5 -6 6 -1
11 2 17 5 13 3 -3 4 -12 1 -19z m-964 -312 c-6 -29 -13 -32 -31 -14 -18 18
-15 66 6 77 14 8 18 5 23 -14 4 -12 4 -34 2 -49z m1078 -31 c13 -4 19 -16 19
-35 0 -27 -4 -29 -57 -40 -32 -7 -63 -13 -68 -15 -6 -1 -12 -19 -13 -39 -2
-32 0 -36 21 -36 13 0 29 6 36 13 11 10 14 10 18 0 3 -7 17 -13 31 -13 15 0
38 -9 52 -20 l25 -19 -25 -50 c-14 -28 -28 -51 -32 -51 -5 0 -8 -7 -8 -15 0
-8 -4 -15 -10 -15 -5 0 -10 -5 -10 -11 0 -5 4 -8 9 -5 19 12 32 -26 36 -106 6
-113 -12 -153 -70 -153 -51 -1 -65 4 -65 21 0 7 -10 19 -22 25 -13 7 -18 14
-11 16 16 6 5 33 -13 33 -8 0 -14 -9 -14 -21 0 -14 -5 -19 -17 -17 -19 4 -36
80 -27 121 3 12 5 108 6 212 0 105 4 200 9 212 4 12 18 23 31 25 25 4 140 -8
169 -17z m-1083 -125 c-2 -76 -6 -100 -17 -100 -10 0 -11 -4 -3 -13 7 -8 6
-17 -3 -30 -9 -12 -15 -14 -20 -7 -4 6 -2 17 4 24 6 7 8 16 5 19 -10 9 -10 97
-1 97 5 0 6 20 4 45 -4 35 -1 47 11 55 10 5 19 10 20 10 2 0 2 -45 0 -100z
m1611 16 c48 -31 55 -33 69 -20 11 11 24 14 46 9 17 -4 63 -6 101 -6 60 2 78
-2 119 -25 47 -26 48 -28 43 -68 -2 -22 0 -93 5 -156 11 -141 -1 -197 -42
-192 -14 2 -47 4 -75 5 -75 3 -93 38 -56 107 18 35 15 70 -8 85 -14 8 -14 68
0 82 8 8 6 17 -9 34 -12 12 -19 26 -16 31 3 4 1 8 -5 8 -20 0 -30 -38 -36
-136 -7 -123 -11 -152 -26 -206 -6 -24 -11 -62 -10 -86 0 -49 -14 -61 -57 -43
-15 6 -45 12 -67 12 -149 1 -283 53 -282 109 0 50 -17 163 -33 210 -10 30 -21
78 -25 105 -4 28 -14 65 -21 84 -8 18 -14 44 -14 56 0 23 1 23 151 24 83 0
154 3 157 6 12 12 41 3 91 -29z m-1619 -190 c0 -3 -4 -8 -10 -11 -5 -3 -10 -1
-10 4 0 6 5 11 10 11 6 0 10 -2 10 -4z m-20 -61 c2 14 20 -30 35 -88 13 -47
13 -48 -8 -41 -12 3 -33 16 -46 29 -19 19 -21 26 -12 43 6 11 11 36 12 54 0
27 2 30 9 13 5 -11 9 -15 10 -10z m430 -331 c0 -8 -7 -14 -16 -14 -8 0 -12 -5
-9 -11 4 -6 -2 -5 -14 3 -22 13 -28 28 -12 28 5 0 12 -6 14 -12 3 -7 6 -3 6 9
1 16 6 21 16 17 8 -4 15 -12 15 -20z m1945 -74 l58 -45 136 -3 c124 -4 138 -6
161 -26 14 -13 35 -30 48 -38 21 -14 21 -16 6 -29 -17 -14 -195 -16 -384 -4
-176 12 -291 13 -375 5 -58 -5 -94 -4 -102 2 -7 6 -24 7 -38 4 -22 -6 -25 -12
-25 -50 0 -32 5 -46 18 -51 9 -4 70 -9 135 -10 130 -2 159 -13 108 -40 -37
-19 -45 -19 -223 -12 l-138 5 0 -25 c0 -13 -5 -34 -11 -45 -8 -15 -8 -22 1
-28 15 -9 143 -19 345 -25 77 -3 154 -7 170 -10 29 -5 97 -10 280 -20 165 -9
265 -23 265 -38 0 -6 -3 -8 -6 -4 -4 3 -20 -1 -37 -9 -24 -13 -31 -14 -38 -2
-7 11 -9 11 -9 -1 0 -11 -42 -12 -247 -7 -547 14 -694 25 -754 56 -21 12 -89
6 -89 -8 1 -4 7 -18 15 -32 8 -14 14 -43 15 -66 0 -52 19 -69 91 -83 59 -12
189 -11 189 2 0 14 43 7 56 -10 12 -17 13 -17 14 -1 0 14 10 17 49 16 27 0 58
3 69 6 11 4 42 -2 68 -13 27 -10 54 -19 59 -20 6 0 10 -7 10 -13 0 -9 -19 -13
-60 -14 -34 0 -69 -3 -78 -7 -18 -7 -24 -47 -6 -47 5 0 8 -4 5 -9 -5 -8 -33
-4 -93 14 -13 4 -21 11 -18 15 3 5 -3 6 -12 4 -10 -3 -38 2 -63 11 -25 9 -107
25 -183 36 l-138 19 -147 77 c-81 42 -163 86 -182 98 -19 12 -114 65 -210 118
-96 53 -183 102 -193 109 -17 12 -17 17 3 91 19 76 51 137 72 137 5 0 21 9 35
19 24 20 76 23 102 7 6 -4 19 -5 29 -2 9 3 23 2 31 -3 8 -5 26 -4 44 4 20 8
41 10 66 4 20 -5 70 -12 111 -15 82 -7 120 -24 120 -54 0 -27 36 -26 52 0 8
12 24 20 40 20 15 0 31 6 35 14 13 23 99 37 288 47 99 5 205 13 235 18 30 4
80 7 111 7 51 -1 62 -6 114 -46z m-161 -190 c6 -6 2 -12 -10 -15 -10 -4 -27
-11 -36 -16 -31 -16 -88 17 -72 42 8 13 103 4 118 -11z m231 -80 c4 -6 -10
-10 -37 -9 -40 1 -41 2 -13 9 43 11 43 11 50 0z m-196 -526 c2 -2 -7 -4 -22
-4 -14 0 -29 5 -32 10 -6 10 42 4 54 -6z m-2662 -530 c-3 -3 -12 -4 -19 -1 -8
3 -5 6 6 6 11 1 17 -2 13 -5z m53 -59 c0 -31 -17 -31 -55 0 l-30 25 43 0 c38
0 42 -2 42 -25z m44 -41 c15 -14 16 -14 16 0 0 18 35 22 46 5 3 -6 19 -9 35
-5 35 7 49 -12 23 -31 -14 -10 -39 -13 -94 -8 -41 3 -90 5 -107 5 -44 -1 -41
7 10 30 51 24 52 24 71 4z m3296 -959 c-7 -8 -17 -15 -22 -15 -6 0 -5 7 2 15
7 8 17 15 22 15 6 0 5 -7 -2 -15z m-139 -1601 c-25 -60 -27 -46 -4 27 9 30 18
47 20 38 2 -9 -5 -38 -16 -65z m-2101 -1032 c0 -13 -12 -22 -22 -16 -10 6 -1
24 13 24 5 0 9 -4 9 -8z"/>
<path d="M10245 7030 c-8 -13 -1 -24 14 -19 6 3 7 10 2 18 -6 10 -10 10 -16 1z"/>
<path d="M10781 5102 c-11 -21 10 -49 57 -75 45 -25 73 -10 32 18 -17 11 -34
32 -39 48 -11 31 -36 36 -50 9z"/>
<path d="M5330 10850 c0 -11 5 -20 10 -20 6 0 10 9 10 20 0 11 -4 20 -10 20
-5 0 -10 -9 -10 -20z"/>
<path d="M6167 10203 c-32 -2 -55 -8 -52 -13 3 -6 -1 -7 -9 -4 -8 3 -25 -4
-38 -16 -12 -11 -34 -23 -48 -26 -56 -11 -115 -41 -125 -61 -5 -12 -18 -24
-29 -27 -42 -11 5 -25 91 -28 14 0 20 -5 16 -14 -6 -16 -17 -16 -85 -5 -38 6
-48 5 -53 -7 -5 -14 10 -31 28 -32 15 0 7 -20 -9 -20 -9 0 -12 5 -8 13 6 10 4
10 -7 0 -7 -7 -21 -13 -31 -13 -12 0 -15 -5 -11 -15 4 -11 -4 -19 -26 -28 -17
-6 -31 -15 -31 -19 0 -5 -19 -29 -42 -54 -36 -39 -40 -48 -30 -65 16 -25 15
-29 -7 -29 -11 0 -23 -4 -26 -10 -4 -6 8 -10 29 -10 19 0 42 -3 52 -7 12 -4
15 -3 10 5 -4 7 -2 12 3 12 6 0 11 -4 11 -10 0 -13 61 0 82 18 16 13 20 13 45
-4 16 -10 35 -19 44 -20 26 -2 109 -36 109 -45 0 -4 27 -11 60 -15 33 -4 63
-10 66 -15 2 -4 11 -6 19 -2 9 3 15 -1 15 -11 0 -23 17 -20 25 5 8 25 18 17
23 -19 2 -15 0 -24 -4 -20 -3 4 -12 1 -20 -6 -13 -13 -138 -46 -175 -46 -12 0
-19 -7 -19 -20 0 -11 7 -20 15 -20 8 0 15 -4 15 -9 0 -10 48 -22 95 -24 57 -3
162 12 216 29 64 21 155 74 141 83 -14 9 -23 46 -17 64 4 8 15 17 27 20 16 5
19 11 13 36 -8 36 7 41 38 14 18 -17 20 -17 38 6 10 13 19 31 19 40 0 10 11
23 24 31 21 11 24 18 19 49 -7 44 -29 97 -43 106 -14 9 -12 30 7 73 9 20 17
42 18 47 1 6 5 18 10 28 16 37 -76 98 -124 82 -11 -3 -23 0 -28 7 -4 7 -21 13
-38 14 -16 0 -75 3 -130 6 -55 3 -126 4 -158 1z m-61 -280 c-11 -11 -35 -12
-42 -2 -3 5 7 9 22 9 15 0 24 -3 20 -7z m-66 -13 c12 -8 9 -10 -13 -10 -16 0
-26 4 -22 10 8 12 16 12 35 0z m-92 -36 c-9 -9 -21 -13 -28 -9 -14 9 5 25 30
25 12 0 12 -3 -2 -16z m82 -85 c0 -10 -5 -19 -11 -19 -7 0 -17 -8 -24 -17 -12
-16 -14 -16 -39 1 -34 22 -31 51 6 51 15 1 30 4 34 7 11 12 34 -4 34 -23z
m322 -33 c14 -10 15 -16 5 -28 -14 -18 -53 -29 -73 -21 -12 4 -11 10 3 34 19
31 38 36 65 15z m-245 -72 c-3 -3 -12 -4 -19 -1 -8 3 -5 6 6 6 11 1 17 -2 13
-5z"/>
<path d="M7235 10163 c-22 -2 -42 -8 -45 -11 -10 -14 -62 -32 -71 -26 -6 3
-13 -3 -16 -15 -3 -11 -9 -19 -13 -16 -13 8 -27 -17 -33 -60 -4 -21 -16 -52
-27 -67 -11 -15 -20 -40 -20 -55 0 -15 -4 -33 -8 -40 -14 -22 16 -234 44 -310
16 -40 57 -87 68 -76 3 3 8 -6 12 -21 3 -14 13 -26 21 -26 13 0 51 -30 46 -37
-6 -8 10 -32 18 -27 12 7 11 54 -1 54 -5 0 -10 10 -10 21 0 17 5 20 23 16 42
-10 92 -26 152 -48 76 -27 153 -34 230 -20 82 15 82 15 102 33 10 8 36 19 57
23 27 4 50 18 73 43 18 20 33 40 33 44 0 12 58 10 66 -3 9 -15 67 -3 107 21
18 11 42 24 55 30 14 6 22 18 22 34 0 14 5 28 10 31 6 3 10 19 10 34 0 16 6
34 14 40 14 12 16 64 3 77 -4 4 -7 20 -7 35 0 15 -5 31 -10 34 -6 4 -10 14 -9
23 4 30 -13 71 -31 77 -10 3 -28 15 -41 27 -47 41 -113 78 -141 78 -17 0 -28
5 -28 14 0 25 -61 35 -235 37 -66 0 -158 7 -205 16 -101 18 -161 22 -215 16z
m265 -433 c0 -5 -4 -10 -10 -10 -5 0 -10 5 -10 10 0 6 5 10 10 10 6 0 10 -4
10 -10z m-160 -51 c0 -15 -5 -20 -22 -17 -34 5 -37 38 -4 38 20 0 26 -5 26
-21z m-196 -37 c12 -23 24 -29 81 -40 51 -10 71 -10 81 -1 11 9 18 8 32 -3 9
-9 23 -17 31 -20 8 -2 -5 -10 -29 -17 -39 -12 -45 -11 -71 8 l-28 21 -38 -21
-37 -21 -18 22 c-10 12 -18 28 -18 35 0 7 -7 18 -15 25 -8 7 -15 19 -15 26 0
24 29 15 44 -14z m240 -37 c-4 -8 -9 -15 -13 -15 -4 0 -8 7 -8 15 0 8 6 15 13
15 8 0 11 -6 8 -15z m70 -1 c9 -3 16 -17 16 -30 0 -36 -24 -29 -48 14 -10 18
-10 22 2 22 8 0 21 -3 30 -6z m189 -59 c34 -14 16 -26 -35 -24 -51 3 -78 13
-78 29 0 9 87 5 113 -5z"/>
<path d="M4649 9973 c-9 -177 7 -254 52 -250 22 1 25 13 7 20 -8 3 -6 6 5 6
18 1 18 3 22 106 1 33 6 75 10 94 9 40 -3 51 -57 51 -34 0 -38 -3 -39 -27z"/>
<path d="M4712 9680 c-6 -11 -12 -28 -12 -37 0 -12 5 -8 15 11 18 34 16 56 -3
26z"/>
<path d="M8564 9628 c-3 -5 -18 -14 -32 -19 -26 -10 -26 -11 -7 -21 28 -15 32
-24 40 -77 7 -51 30 -140 48 -186 l11 -29 7 33 c4 18 3 47 -2 64 -5 19 -5 43
1 62 5 16 14 57 20 90 6 33 14 68 16 77 4 14 -3 17 -46 16 -28 -1 -53 -5 -56
-10z"/>
<path d="M4952 9583 c-23 -15 -47 -40 -53 -56 -7 -16 -24 -43 -37 -59 l-25
-30 18 -35 c28 -51 57 -80 86 -85 22 -4 28 0 38 28 7 18 25 44 41 58 35 29 38
57 15 133 -21 72 -33 78 -83 46z"/>
<path d="M8486 9564 c-5 -12 -2 -15 10 -10 8 3 18 6 20 6 2 0 4 5 4 10 0 16
-27 11 -34 -6z"/>
<path d="M7110 9441 c0 -6 4 -13 10 -16 6 -3 7 1 4 9 -7 18 -14 21 -14 7z"/>
<path d="M8441 9431 c-8 -6 -9 -11 -3 -15 6 -3 14 -1 17 5 9 14 2 20 -14 10z"/>
<path d="M8406 9323 c-3 -10 -6 -63 -6 -118 -1 -55 -3 -156 -5 -225 -4 -164
-5 -161 46 -143 39 13 78 47 79 67 0 5 6 17 14 25 19 22 30 91 15 91 -8 0 -10
12 -5 39 3 23 2 42 -4 46 -5 3 -10 15 -10 26 0 10 -5 19 -11 19 -5 0 -9 8 -8
18 2 16 -3 33 -21 77 -5 11 -12 31 -16 45 -12 44 -58 66 -68 33z"/>
<path d="M4680 9142 c0 -27 62 -120 68 -102 3 7 0 15 -5 19 -6 3 -22 29 -36
56 -20 39 -26 45 -27 27z"/>
<path d="M10687 9084 c-3 -10 -8 -34 -12 -51 -6 -30 -5 -33 19 -33 30 0 34 20
12 71 -11 27 -14 29 -19 13z"/>
<path d="M4970 9051 c0 -24 21 -61 35 -61 17 0 20 23 5 51 -11 19 -40 27 -40
10z"/>
<path d="M6997 8886 c-22 -6 -36 -14 -33 -19 3 -4 1 -3 -6 2 -7 7 -18 6 -30 0
-11 -6 -44 -9 -73 -7 -33 2 -57 -2 -64 -9 -6 -7 -24 -15 -39 -18 -40 -9 -54
-18 -63 -43 -7 -19 -4 -24 15 -32 26 -9 38 -31 27 -48 -5 -8 -15 -7 -36 4 -28
14 -31 14 -48 -7 -12 -15 -14 -25 -7 -34 8 -9 6 -14 -4 -18 -13 -5 -13 -10 -1
-34 8 -16 16 -57 19 -93 4 -70 26 -100 72 -100 12 0 26 -5 29 -10 4 -7 12 -7
25 0 24 13 53 13 45 0 -4 -7 2 -9 19 -4 14 3 26 2 26 -3 0 -20 45 -31 71 -18
20 11 27 11 41 -2 14 -12 21 -13 31 -4 16 12 80 4 71 -10 -3 -5 2 -6 9 -3 8 3
17 14 20 25 5 20 27 27 27 8 0 -5 -4 -7 -10 -4 -5 3 -10 1 -10 -4 0 -6 8 -11
18 -11 14 0 15 -2 2 -9 -8 -6 -17 -8 -21 -5 -4 2 -10 -3 -13 -12 -3 -8 -10
-13 -15 -9 -5 3 -12 1 -16 -5 -4 -6 5 -10 19 -10 14 0 26 -4 26 -10 0 -20 18
-9 24 14 3 14 20 38 37 55 21 22 29 37 24 50 -3 11 -12 18 -19 15 -22 -8 -42
37 -39 86 2 25 4 55 4 68 1 15 10 28 26 35 24 11 25 14 20 72 -4 43 -11 63
-23 70 -10 6 -33 25 -51 43 -19 17 -39 32 -45 32 -6 0 -19 6 -27 14 -13 11
-24 11 -54 2z m33 -467 c0 -6 -4 -7 -10 -4 -5 3 -10 11 -10 16 0 6 5 7 10 4 6
-3 10 -11 10 -16z"/>
<path d="M6513 8857 c-21 -7 -38 -23 -50 -46 -10 -20 -21 -37 -25 -39 -15 -7
11 -57 38 -73 39 -23 43 -23 54 5 5 15 26 32 53 44 25 11 48 25 51 31 4 6 16
11 27 11 10 0 19 4 19 8 0 15 -44 49 -79 61 -38 12 -43 12 -88 -2z"/>
<path d="M8611 8820 c-12 -17 -17 -30 -12 -30 10 0 45 50 39 56 -3 2 -14 -10
-27 -26z"/>
<path d="M10639 8563 c0 -5 -2 -28 -5 -51 -3 -32 -1 -43 8 -40 16 6 24 98 9
98 -6 0 -11 -3 -12 -7z"/>
<path d="M8465 8520 c-3 -5 3 -10 15 -10 12 0 18 5 15 10 -3 6 -10 10 -15 10
-5 0 -12 -4 -15 -10z"/>
<path d="M12307 8434 c-77 -60 -143 -149 -169 -226 -17 -53 -19 -71 -10 -77 7
-4 44 -4 83 1 79 9 93 6 63 -17 -26 -21 -140 -75 -157 -75 -7 0 -34 -13 -60
-30 -53 -34 -103 -38 -200 -19 -71 15 -92 9 -144 -41 -25 -24 -55 -43 -75 -46
-37 -6 -46 -10 -138 -52 -36 -16 -77 -32 -92 -36 -22 -5 -27 -11 -26 -36 1
-20 5 -27 12 -21 6 5 25 11 42 14 17 3 40 9 50 15 11 5 34 12 53 16 19 3 42
12 50 19 9 8 35 19 58 27 24 7 39 18 37 24 -3 7 7 18 21 26 22 12 28 12 41 -1
44 -45 19 -139 -37 -139 -16 0 -86 -27 -155 -61 -69 -33 -142 -63 -162 -66
-56 -9 -72 -20 -72 -52 0 -31 14 -41 61 -41 36 0 61 -36 64 -93 1 -23 8 -63
15 -89 9 -36 9 -55 0 -82 -11 -35 -10 -44 12 -119 9 -31 15 -37 37 -35 14 1
50 -6 79 -16 30 -10 66 -16 82 -13 28 6 60 -16 60 -41 0 -6 17 -16 38 -23 20
-6 52 -27 71 -45 64 -64 98 -28 45 47 -28 41 -29 66 -2 83 14 9 23 6 43 -14
26 -26 35 -70 53 -255 12 -118 -22 -583 -47 -651 l-12 -31 -35 18 c-41 21 -76
16 -47 -7 10 -7 28 -14 39 -14 12 0 25 -8 29 -17 7 -18 8 -270 1 -282 -2 -3
-7 -43 -10 -89 -4 -46 -11 -95 -17 -109 -6 -18 -6 -30 2 -39 29 -35 57 5 46
64 -7 37 12 284 23 297 12 15 98 36 154 38 29 1 46 7 46 14 0 17 68 88 76 80
4 -3 3 -22 0 -42 -5 -24 -12 -35 -25 -35 -10 0 -18 -7 -18 -15 0 -18 37 -23
245 -29 l162 -5 0 1189 c0 840 -3 1191 -11 1195 -6 4 -17 -2 -25 -14 -21 -30
-29 -27 -64 23 -26 35 -39 45 -71 50 -25 4 -39 12 -39 21 0 24 -24 17 -73 -21z
m-21 -426 c4 -6 -3 -19 -16 -30 -19 -15 -32 -18 -64 -13 -40 7 -64 20 -55 30
3 2 30 9 60 14 30 5 57 9 61 10 4 0 10 -4 14 -11z m-395 -658 c5 0 9 -12 9
-26 0 -23 3 -26 26 -21 30 5 44 -21 44 -82 0 -48 -26 -75 -64 -65 -22 5 -26
12 -26 44 0 32 -4 39 -22 42 -19 2 -24 10 -26 46 -3 47 12 76 35 67 8 -3 19
-5 24 -5z m365 -667 c-4 -9 -2 -21 3 -27 6 -7 5 -32 -3 -66 -15 -65 -24 -48
-20 35 2 33 3 66 4 73 0 7 5 10 11 7 6 -4 8 -14 5 -22z m-19 -240 c-3 -10 -5
-2 -5 17 0 19 2 27 5 18 2 -10 2 -26 0 -35z m-167 -39 c0 -9 -5 -14 -12 -12
-18 6 -21 28 -4 28 9 0 16 -7 16 -16z m50 6 c0 -5 -4 -10 -9 -10 -6 0 -13 5
-16 10 -3 6 1 10 9 10 9 0 16 -4 16 -10z"/>
<path d="M7308 8403 c0 -5 -1 -15 -2 -23 -1 -10 -13 -16 -36 -17 -19 -1 -36
-7 -38 -13 -3 -7 -13 -19 -23 -28 -14 -12 -16 -19 -7 -29 6 -7 16 -13 24 -13
17 0 44 -28 44 -46 0 -44 -111 -35 -219 17 -85 41 -122 45 -220 24 -64 -14
-87 -16 -107 -6 -14 6 -38 11 -55 11 -16 0 -37 5 -48 11 -20 13 -95 4 -86 -11
3 -4 -12 -8 -33 -8 -51 -1 -125 -13 -137 -22 -14 -11 -92 -31 -142 -37 l-41
-4 0 43 c0 81 -3 113 -9 100 -4 -9 -9 -8 -22 7 -17 20 -18 20 -31 0 -8 -10
-21 -19 -30 -19 -8 0 -30 -14 -47 -30 -30 -27 -33 -35 -33 -84 0 -60 7 -86 22
-86 6 0 16 -6 22 -14 13 -17 68 -22 109 -11 17 5 45 1 78 -9 29 -10 56 -13 62
-9 17 12 67 16 67 5 0 -5 21 -5 53 1 63 12 97 13 207 3 47 -4 112 -8 145 -10
100 -5 229 -16 241 -21 6 -2 14 -15 16 -29 4 -22 1 -26 -17 -26 -12 0 -25 -3
-29 -7 -4 -5 -20 -8 -36 -9 -36 0 -60 -20 -60 -50 0 -23 2 -24 83 -24 46 0 87
-4 93 -10 22 -22 134 -6 134 20 0 5 6 10 14 10 8 0 25 13 38 29 14 16 33 33
44 38 19 10 102 3 137 -12 24 -10 66 20 79 56 5 16 15 29 21 29 7 0 25 11 42
24 25 20 29 30 28 67 -1 24 -7 45 -13 47 -5 2 -10 11 -10 19 0 9 -6 13 -15 9
-8 -3 -21 1 -29 9 -15 16 -53 19 -80 9 -13 -5 -14 -9 -5 -20 9 -11 8 -14 -5
-14 -9 0 -24 9 -33 19 -12 15 -24 18 -50 14 -33 -6 -34 -5 -22 15 7 11 15 19
19 17 3 -2 6 13 8 32 1 21 -2 32 -8 28 -6 -3 -14 5 -20 19 -9 24 -28 35 -32
19z m12 -93 c0 -5 -11 -9 -25 -8 -14 1 -25 6 -25 10 0 4 11 8 25 8 14 0 25 -4
25 -10z m-730 -55 c0 -8 -4 -15 -10 -15 -5 0 -10 7 -10 15 0 8 5 15 10 15 6 0
10 -7 10 -15z m-90 -5 c10 -6 6 -9 -18 -8 -17 1 -29 5 -26 10 7 11 25 10 44
-2z m50 -26 c0 -2 -7 -4 -15 -4 -8 0 -15 4 -15 10 0 5 7 7 15 4 8 -4 15 -8 15
-10z"/>
<path d="M8335 8349 c-4 -17 -4 -33 -1 -36 9 -10 110 -3 120 7 7 7 0 10 -17
10 -16 0 -40 11 -55 25 -34 32 -39 31 -47 -6z"/>
<path d="M8302 8275 c-7 -14 -12 -42 -12 -61 0 -21 -4 -33 -10 -29 -5 3 -10
-3 -10 -14 0 -11 -8 -22 -17 -24 -17 -4 -17 -5 0 -6 11 -1 17 -9 17 -23 0 -48
19 1 28 72 6 41 13 83 17 93 11 27 0 20 -13 -8z"/>
<path d="M10614 8258 c-8 -12 4 -59 21 -81 10 -14 21 -17 47 -12 32 6 33 8 33
53 l0 47 -48 1 c-26 1 -50 -3 -53 -8z"/>
<path d="M3680 8080 c-7 -13 -10 -93 -9 -218 2 -262 1 -261 202 -255 110 3
140 11 156 41 5 9 11 104 12 210 l4 194 -28 24 c-27 23 -34 24 -177 24 -140 0
-150 -1 -160 -20z"/>
<path d="M8260 8080 c-13 -8 -12 -10 3 -10 9 0 17 5 17 10 0 12 -1 12 -20 0z"/>
<path d="M8195 8071 c-6 -11 9 -23 19 -14 9 9 7 23 -3 23 -6 0 -12 -4 -16 -9z"/>
<path d="M3424 8050 c-22 -10 -51 -31 -63 -46 -22 -28 -23 -34 -15 -144 9
-133 9 -137 4 -210 -4 -47 -1 -55 14 -58 10 -2 28 0 40 6 11 5 33 14 48 20 42
17 53 71 50 257 -1 88 -5 168 -8 178 -7 21 -18 21 -70 -3z"/>
<path d="M8260 8036 c0 -13 -6 -26 -14 -29 -10 -4 -12 0 -8 15 5 19 2 20 -34
14 -51 -10 -77 -33 -69 -63 4 -16 1 -23 -10 -23 -8 0 -32 -12 -54 -27 -30 -22
-38 -33 -34 -49 5 -24 -12 -42 -20 -21 -7 20 -76 9 -90 -14 -7 -11 -22 -19
-34 -19 -15 0 -23 -7 -25 -22 -2 -17 -9 -22 -26 -21 -13 2 -32 -1 -42 -7 -14
-7 -23 -6 -34 5 -17 18 -42 20 -52 4 -3 -6 -15 -9 -25 -6 -11 3 -19 2 -19 -3
0 -4 9 -10 21 -13 27 -7 15 -27 -16 -27 -37 0 -55 -10 -55 -31 0 -11 -12 -37
-26 -59 -22 -33 -32 -40 -58 -40 -18 0 -38 -6 -44 -12 -10 -10 -17 -10 -34 1
-17 11 -22 11 -29 0 -4 -8 -4 -18 1 -23 6 -6 10 -20 10 -32 0 -17 -4 -21 -21
-17 -18 5 -19 2 -13 -22 6 -24 5 -27 -15 -20 -34 11 -55 -18 -42 -57 8 -22 8
-35 0 -44 -6 -7 -9 -23 -7 -36 2 -17 -2 -23 -14 -22 -10 1 -18 -2 -18 -7 0 -5
5 -9 11 -9 5 0 7 -4 4 -10 -3 -5 -19 -7 -35 -3 -30 5 -43 -10 -17 -20 7 -3 5
-6 -5 -6 -10 -1 -18 -5 -18 -11 0 -20 -38 -9 -54 15 -19 28 -44 33 -53 9 -4
-11 -13 -14 -29 -10 -17 5 -24 2 -24 -9 0 -15 -16 -20 -57 -16 -12 1 -24 -3
-28 -9 -3 -5 -23 -10 -44 -10 -25 0 -44 -7 -56 -20 -10 -11 -22 -17 -27 -14
-5 3 -14 1 -21 -4 -7 -6 -23 -12 -37 -14 -16 -2 -26 -11 -30 -27 -7 -32 -40
-43 -63 -23 -14 13 -20 14 -26 3 -10 -16 -91 -28 -91 -13 0 6 -14 14 -32 17
-26 6 -35 3 -49 -14 -17 -21 -56 -31 -44 -11 6 9 -10 14 -42 13 -7 -1 -13 5
-13 13 0 8 -5 14 -11 14 -5 0 -8 -4 -5 -9 10 -15 -56 -51 -74 -41 -22 12 -60
1 -60 -16 0 -9 11 -14 30 -14 36 0 40 -15 5 -24 -14 -4 -25 -11 -25 -16 0 -6
-9 -6 -25 0 -18 7 -28 5 -39 -5 -8 -8 -19 -15 -25 -15 -13 0 -14 -17 -2 -25 5
-3 13 -20 16 -38 4 -17 13 -39 21 -47 13 -16 6 -78 -9 -72 -22 8 -26 -1 -11
-29 11 -23 13 -34 5 -42 -6 -6 -11 -28 -11 -48 0 -20 -7 -42 -15 -49 -23 -19
-19 -60 5 -60 11 0 28 -9 37 -20 10 -11 23 -20 30 -20 7 0 13 -5 13 -10 0 -6
11 -15 24 -21 14 -7 22 -17 19 -25 -4 -11 5 -14 36 -14 23 0 41 -4 41 -10 0
-5 16 -12 35 -16 19 -3 35 -10 35 -15 0 -5 7 -9 15 -9 9 0 18 -7 21 -15 4 -8
14 -15 24 -15 10 0 22 -9 25 -21 4 -11 18 -24 31 -29 13 -5 24 -17 24 -25 0
-9 7 -23 15 -31 8 -9 15 -29 15 -45 0 -16 5 -29 10 -29 9 0 14 17 13 47 -1 8
9 5 24 -7 22 -17 27 -18 40 -5 8 9 20 12 26 8 15 -9 120 -4 131 7 5 5 -11 7
-39 4 -36 -4 -46 -3 -42 8 2 7 15 12 28 10 17 -1 20 1 10 7 -10 6 -10 10 -1
16 6 4 18 -1 25 -11 8 -11 15 -14 15 -8 0 7 13 9 38 4 27 -4 53 0 96 17 33 13
71 23 84 23 13 0 35 9 49 20 13 10 50 29 81 40 30 12 72 34 93 50 20 17 40 30
43 30 3 0 14 7 24 16 9 8 49 36 87 61 39 25 72 49 74 55 2 5 14 13 27 18 13 5
24 16 24 23 0 8 19 27 43 42 46 30 137 120 137 136 0 5 8 9 17 9 10 0 37 21
61 47 39 44 41 48 22 55 -20 7 -28 38 -10 38 6 0 10 -7 10 -16 0 -13 3 -14 15
-4 8 7 12 16 9 21 -3 5 6 13 19 18 22 9 24 14 20 62 -4 47 -2 51 15 47 15 -4
18 -1 14 18 -2 13 0 24 5 24 5 0 15 17 22 38 28 76 59 101 62 49 1 -19 2 -19
6 -3 3 10 -1 30 -8 43 -11 21 -11 27 2 37 9 7 16 30 18 61 3 63 4 68 55 190
23 55 48 120 55 145 7 25 17 54 21 65 5 11 11 31 14 45 3 14 16 73 29 133 13
59 20 107 15 107 -4 0 -8 -11 -8 -24z m-10 -66 c0 -13 -5 -18 -15 -14 -16 7
-19 17 -8 27 12 13 23 7 23 -13z m-285 -140 c3 -5 1 -10 -4 -10 -6 0 -11 5
-11 10 0 6 2 10 4 10 3 0 8 -4 11 -10z m-512 -335 c-3 -9 -8 -14 -10 -11 -3 3
-2 9 2 15 9 16 15 13 8 -4z m-776 -1191 c-3 -3 -12 -4 -19 -1 -8 3 -5 6 6 6
11 1 17 -2 13 -5z"/>
<path d="M6728 7857 c-13 -5 -45 -10 -73 -13 -29 -2 -55 -10 -61 -19 -13 -18
-34 -20 -34 -4 0 8 -5 7 -16 -2 -13 -11 -14 -15 -2 -23 8 -6 14 -21 15 -34 1
-12 16 -34 33 -48 17 -15 29 -32 26 -39 -5 -15 46 -42 99 -51 103 -17 125 -17
125 1 0 14 6 16 29 12 23 -5 30 -2 34 14 3 12 11 17 20 13 8 -3 17 2 20 10 4
9 13 16 21 16 34 0 64 23 74 58 12 38 9 52 -13 52 -8 0 -29 9 -47 20 -23 14
-51 20 -90 20 -31 0 -59 4 -62 9 -8 13 -71 18 -98 8z"/>
<path d="M3209 7755 c-3 -2 -58 -5 -122 -6 -69 -2 -121 -7 -126 -13 -5 -6 -10
-105 -12 -221 l-4 -210 45 -2 c25 0 70 -2 101 -3 86 -4 99 3 99 54 0 29 6 48
19 60 22 20 31 71 37 229 5 110 4 117 -14 117 -10 0 -21 -2 -23 -5z m-149
-135 c0 -5 -4 -10 -10 -10 -5 0 -10 5 -10 10 0 6 5 10 10 10 6 0 10 -4 10 -10z
m110 -138 c4 -76 0 -100 -16 -106 -9 -4 -22 -2 -29 4 -9 7 -21 7 -41 0 -15 -6
-39 -9 -51 -5 -19 4 -23 12 -23 45 0 54 16 92 37 88 19 -4 64 -87 55 -102 -3
-5 0 -6 6 -2 7 4 12 17 12 29 0 12 7 35 15 51 8 15 15 42 16 60 l1 31 8 -28
c5 -15 9 -45 10 -65z"/>
<path d="M3588 7690 c-23 -60 -28 -107 -22 -195 4 -53 11 -98 15 -101 5 -3 9
-23 9 -45 0 -62 15 -46 17 19 5 174 -6 356 -19 322z"/>
<path d="M2756 7652 c-27 -31 -33 -72 -23 -157 11 -97 11 -108 2 -209 l-8 -78
22 11 c12 7 26 22 31 35 4 12 10 109 12 216 3 200 -1 220 -36 182z"/>
<path d="M2631 7561 c-19 -12 -40 -168 -37 -284 2 -53 5 -100 8 -102 9 -9 36
6 43 23 10 25 27 254 23 313 -3 53 -12 66 -37 50z"/>
<path d="M2499 7464 c-17 -21 -27 -300 -11 -316 19 -19 29 29 36 185 8 146 4
166 -25 131z"/>
<path d="M2389 7433 c-22 -58 -31 -141 -25 -232 4 -52 9 -97 11 -100 3 -3 12
2 20 10 11 11 15 53 18 177 4 159 -2 201 -24 145z"/>
<path d="M2245 7289 c-27 -11 -59 -29 -71 -40 -11 -10 -25 -19 -30 -19 -6 0
-28 -16 -50 -36 -21 -19 -73 -60 -114 -90 -140 -101 -141 -102 -156 -194 -7
-45 -11 -96 -9 -113 4 -32 -11 -61 -26 -51 -25 15 11 -46 55 -93 16 -18 35
-33 41 -33 21 0 37 82 37 189 0 139 5 147 98 153 39 3 77 11 83 17 8 8 5 11
-10 11 -12 0 -25 5 -28 10 -8 13 49 13 73 0 31 -17 131 -28 142 -15 5 6 12 51
16 100 3 50 10 100 15 113 14 36 11 112 -3 111 -7 0 -35 -9 -63 -20z"/>
<path d="M3590 7277 c0 -14 5 -29 10 -32 7 -4 8 3 4 22 -9 38 -14 42 -14 10z"/>
<path d="M2861 7260 c0 -8 4 -22 9 -30 12 -18 12 -2 0 25 -6 13 -9 15 -9 5z"/>
<path d="M6157 7108 c-3 -9 -2 -17 2 -16 21 4 41 -17 41 -43 0 -16 3 -29 8
-29 18 1 33 19 30 36 -2 11 2 18 10 17 6 -2 12 4 12 12 0 8 0 18 0 23 0 4 -22
9 -49 12 -42 5 -51 3 -54 -12z"/>
<path d="M8047 7031 c-4 -18 -7 -48 -6 -65 1 -29 1 -29 10 9 6 22 8 51 7 65
-3 22 -4 21 -11 -9z"/>
<path d="M2839 7007 c-26 -54 -64 -75 -231 -130 -58 -19 -133 -49 -168 -67
-45 -22 -73 -31 -94 -27 -45 6 -56 -1 -56 -36 0 -36 15 -49 88 -73 54 -19 72
-31 72 -50 0 -9 -11 -14 -29 -14 -17 0 -33 -4 -36 -10 -3 -5 -30 -10 -58 -10
-116 0 -309 -57 -323 -95 -4 -10 4 -27 22 -46 31 -32 46 -36 64 -14 13 15 65
32 237 76 61 15 128 35 149 44 37 15 39 15 56 -7 10 -13 18 -31 18 -40 0 -29
29 -37 79 -21 25 8 68 18 95 24 27 5 57 15 65 22 9 8 43 19 76 26 33 7 70 22
81 33 17 15 29 18 60 12 22 -4 51 -13 67 -21 17 -8 27 -10 27 -3 0 17 32 45
67 59 45 18 64 70 60 171 -1 44 -5 80 -9 80 -5 0 -8 -6 -8 -14 0 -22 -29 -27
-63 -12 -18 8 -41 17 -52 20 -11 3 -45 26 -75 51 -30 25 -70 52 -88 61 -17 8
-41 24 -52 36 l-19 21 -22 -46z"/>
<path d="M6130 7041 c0 -5 7 -15 17 -22 15 -13 15 -12 4 9 -12 23 -21 28 -21
13z"/>
<path d="M1512 6992 c-8 -17 -9 -28 -2 -30 5 -2 10 -12 10 -22 0 -52 72 -39
78 15 2 17 8 35 13 41 6 8 0 13 -22 18 -52 10 -63 7 -77 -22z"/>
<path d="M3230 6965 c0 -8 5 -15 10 -15 6 0 10 7 10 15 0 8 -4 15 -10 15 -5 0
-10 -7 -10 -15z"/>
<path d="M11406 6946 c3 -9 11 -16 16 -16 13 0 5 23 -10 28 -7 2 -10 -2 -6
-12z"/>
<path d="M1676 6939 c3 -5 -2 -12 -10 -15 -12 -5 -16 -21 -16 -64 0 -32 -4
-60 -10 -62 -6 -2 -2 -23 9 -53 20 -53 42 -64 99 -50 l25 6 -7 117 c-4 64 -9
118 -11 121 -9 8 -84 8 -79 0z"/>
<path d="M11531 6941 c-10 -6 -12 -19 -7 -45 8 -40 13 -43 42 -22 18 14 18 15
2 21 -13 5 -16 14 -12 31 6 25 -1 30 -25 15z"/>
<path d="M11562 6843 c9 -10 19 -36 23 -58 5 -23 10 -33 12 -22 3 9 9 17 15
17 6 0 8 9 5 20 -3 11 -1 23 4 26 5 3 9 12 9 20 0 10 -12 14 -42 14 -38 0 -40
-1 -26 -17z"/>
<path d="M2033 6833 c-23 -9 -13 -93 11 -93 17 1 76 58 76 74 0 18 -58 31 -87
19z"/>
<path d="M7985 6774 c-11 -20 -30 -40 -42 -45 -13 -5 -23 -15 -23 -23 0 -10
-6 -13 -15 -10 -9 4 -23 -3 -34 -15 -10 -11 -23 -21 -29 -21 -7 0 -19 -12 -29
-27 -10 -16 -30 -39 -45 -53 -16 -14 -28 -35 -28 -48 0 -21 -2 -22 -15 -12
-12 10 -16 9 -21 -3 -3 -9 -3 -21 1 -26 3 -6 0 -8 -8 -5 -8 3 -21 -6 -31 -20
-9 -15 -24 -26 -34 -26 -10 0 -24 -9 -32 -21 -8 -11 -32 -28 -52 -36 -21 -8
-35 -20 -32 -25 4 -6 10 -5 15 3 4 7 11 10 15 7 9 -9 -48 -58 -62 -54 -6 3
-17 -6 -24 -19 -7 -14 -18 -21 -27 -18 -8 3 -13 0 -11 -8 2 -8 -14 -16 -42
-22 -53 -11 -59 -15 -40 -27 9 -5 -1 -7 -26 -4 -31 4 -44 1 -66 -19 -16 -13
-28 -32 -28 -41 0 -12 -9 -16 -34 -16 -36 0 -58 -26 -34 -42 19 -11 0 -10 -23
2 -14 8 -19 7 -19 -3 0 -21 -37 -50 -54 -44 -9 4 -18 2 -21 -3 -3 -4 1 -11 7
-13 7 -3 -9 -6 -37 -6 -36 -1 -46 2 -35 9 13 9 13 10 0 10 -8 0 -26 -9 -40
-20 -14 -11 -30 -20 -36 -20 -6 0 -17 -7 -24 -15 -10 -12 -16 -13 -27 -4 -7 7
-17 9 -20 5 -4 -4 -1 -11 7 -16 15 -9 -63 -3 -90 7 -8 3 -25 5 -37 4 -13 -1
-35 5 -51 14 -26 16 -31 16 -90 -4 -35 -12 -68 -18 -74 -15 -6 4 -8 3 -4 -4 3
-6 2 -13 -4 -17 -5 -3 -10 -1 -10 4 0 15 -27 14 -32 -1 -3 -8 -16 -4 -39 13
-20 14 -48 24 -69 24 -24 0 -35 5 -35 15 0 9 -14 17 -38 21 -20 3 -47 15 -60
26 -12 12 -37 24 -55 28 -20 4 -38 16 -47 33 -8 15 -14 21 -15 14 0 -7 -4 -10
-10 -7 -5 3 -10 -2 -10 -12 -1 -17 -2 -17 -15 1 -8 11 -15 14 -15 8 0 -7 -8
-12 -17 -12 -15 0 -15 2 -4 9 9 6 11 16 7 27 -7 17 -9 17 -21 -6 -8 -14 -14
-20 -15 -15 0 6 -14 26 -31 45 -115 127 -123 134 -96 88 6 -12 29 -40 49 -63
20 -22 66 -75 101 -118 110 -133 229 -259 301 -321 64 -55 72 -59 135 -66 61
-7 71 -6 131 22 36 17 119 65 185 108 187 120 279 176 425 258 148 83 402 236
422 255 7 7 40 30 73 52 168 113 295 254 325 360 16 57 10 65 -15 19z m-1827
-839 c-3 -3 -9 2 -12 12 -6 14 -5 15 5 6 7 -7 10 -15 7 -18z"/>
<path d="M1560 6790 c0 -5 5 -10 10 -10 6 0 10 5 10 10 0 6 -4 10 -10 10 -5 0
-10 -4 -10 -10z"/>
<path d="M11387 6783 c-15 -15 -5 -23 28 -23 39 0 47 14 13 24 -29 7 -33 7
-41 -1z"/>
<path d="M11610 6657 c0 -22 23 -37 57 -37 40 0 44 22 8 38 -34 16 -65 15 -65
-1z"/>
<path d="M11320 6650 c0 -5 7 -7 15 -4 8 4 15 8 15 10 0 2 -7 4 -15 4 -8 0
-15 -4 -15 -10z"/>
<path d="M5620 6545 c0 -6 25 -36 55 -69 30 -32 55 -62 55 -66 0 -4 7 -10 15
-14 13 -5 14 -2 1 22 -16 31 -126 142 -126 127z"/>
<path d="M1830 6439 c-19 -21 -56 -54 -82 -72 -28 -18 -48 -40 -48 -50 0 -25
56 -46 119 -45 42 1 54 6 64 22 17 31 25 161 10 175 -18 16 -24 13 -63 -30z"/>
<path d="M11400 6380 c8 -5 20 -10 25 -10 6 0 3 5 -5 10 -8 5 -19 10 -25 10
-5 0 -3 -5 5 -10z"/>
<path d="M5770 6371 c0 -6 4 -13 10 -16 6 -3 7 1 4 9 -7 18 -14 21 -14 7z"/>
<path d="M11440 6370 c0 -5 5 -10 10 -10 6 0 10 5 10 10 0 6 -4 10 -10 10 -5
0 -10 -4 -10 -10z"/>
<path d="M2748 6313 c-48 -5 -50 -13 -46 -167 3 -110 5 -119 24 -126 31 -12
81 16 93 53 6 17 14 68 18 113 5 68 3 88 -11 109 -9 14 -22 24 -29 23 -6 -1
-29 -3 -49 -5z"/>
<path d="M6585 6247 c-4 -10 -5 -21 -1 -24 10 -10 18 4 13 24 -4 17 -4 17 -12
0z"/>
<path d="M6545 6240 c3 -5 8 -10 11 -10 2 0 4 5 4 10 0 6 -5 10 -11 10 -5 0
-7 -4 -4 -10z"/>
<path d="M5920 6225 c7 -9 15 -13 17 -11 7 7 -7 26 -19 26 -6 0 -6 -6 2 -15z"/>
<path d="M12476 5902 c-3 -6 -1 -14 5 -17 15 -10 25 3 12 16 -7 7 -13 7 -17 1z"/>
<path d="M12236 5809 c-4 -33 -5 -63 -3 -66 3 -2 8 23 12 57 4 34 5 63 2 66
-2 3 -7 -23 -11 -57z"/>
<path d="M12232 5710 c0 -14 2 -19 5 -12 2 6 2 18 0 25 -3 6 -5 1 -5 -13z"/>
<path d="M1361 5497 c-27 -27 4 -102 51 -121 27 -12 83 -6 106 10 9 6 -32 74
-52 87 -36 24 -92 37 -105 24z"/>
<path d="M5182 4965 c12 -26 23 -31 32 -16 3 5 -5 16 -19 25 -25 16 -25 16
-13 -9z"/>
<path d="M12580 2666 c0 -7 -7 -27 -15 -42 -22 -43 -20 -84 5 -84 18 0 20 7
20 70 0 39 -2 70 -5 70 -3 0 -5 -6 -5 -14z"/>
<path d="M12547 1970 c-20 -50 -27 -79 -22 -100 7 -31 25 -42 25 -15 0 8 9 20
20 27 17 11 20 24 20 85 0 40 -3 73 -7 73 -5 0 -21 -32 -36 -70z"/>
</g>
</svg>
